<?xml version="1.0" encoding="UTF-8" standalone="no"?>
<svg
  fill="currentColor"
  xmlns:dc="http://purl.org/dc/elements/1.1/"
  xmlns:cc="http://creativecommons.org/ns#"
  xmlns:rdf="http://www.w3.org/1999/02/22-rdf-syntax-ns#"
  xmlns:svg="http://www.w3.org/2000/svg"
  xmlns="http://www.w3.org/2000/svg"
  viewBox="0 0 1066.6667 457.56"
  height="457.56"
  width="1066.6667"
  xml:space="preserve"
  id="svg2"
  version="1.1"><metadata
     id="metadata8"><rdf:RDF><cc:Work
         rdf:about=""><dc:format>image/svg+xml</dc:format><dc:type
           rdf:resource="http://purl.org/dc/dcmitype/StillImage" /></cc:Work></rdf:RDF></metadata><defs
     id="defs6" /><g
     transform="matrix(1.3333333,0,0,-1.3333333,0,457.56)"
     id="g10"><g
       transform="scale(0.1)"
       id="g12"><path
         id="path14"
         d="m 3504.57,1831.57 c 0,56.5 65.92,94.19 158.21,94.19 97.95,0 171.41,-37.69 177.05,-92.31 h 242.99 v 111.14 c -43.32,111.12 -216.61,188.36 -425.69,188.36 -259.92,0 -440.75,-133.74 -440.75,-323.98 0,-423.79 629.11,-216.61 629.11,-399.31 0,-65.92 -67.81,-111.14 -165.75,-111.14 -101.71,0 -180.83,52.73 -194.02,129.96 h -244.85 v -122.43 c 50.85,-126.19 226.01,-214.73 425.68,-214.73 275,0 467.13,143.16 467.13,350.35 0,404.98 -629.11,222.26 -629.11,389.9" /><path
         id="path16"
         d="m 4773.25,1355.02 c -141.26,0 -239.21,105.5 -239.21,256.18 0,152.55 97.95,258.05 239.21,258.05 139.39,0 239.22,-105.5 239.22,-258.05 0,-150.68 -99.83,-256.18 -239.22,-256.18 z m 0,777.93 c -320.2,0 -538.7,-212.84 -538.7,-521.75 0,-307.03 218.5,-519.88 538.7,-519.88 318.33,0 538.7,212.85 538.7,519.88 0,308.91 -220.37,521.75 -538.7,521.75" /><path
         id="path18"
         d="m 2605.12,1631.57 -208.67,463.7 h -261.82 v -129.95 l 341.04,-697.6 129.45,363.85" /><path
         id="path20"
         d="m 2689.26,1553.64 -139.64,-435.93 -0.82,0.44 0.21,-0.44 c -44.5,-101.72 -98.5,-175.081 -177.63,-195.569 V 693.41 c 12.05,-0.84 23.77,-1.39 34.48,-1.39 194.01,0 320.2,167.628 406.85,401.21 l 329.63,872.09 v 129.95 h -261.82 l -191.26,-541.63" /><path
         id="path22"
         d="m 6816.56,1453.23 c -99.83,0 -171.37,-69.69 -171.37,-167.64 0,-97.94 71.54,-165.75 171.37,-165.75 101.7,0 173.3,67.81 173.3,165.75 0,97.95 -71.6,167.64 -173.3,167.64" /><path
         id="path24"
         d="m 1260.21,2106.66 c 0,95.71 105.12,163.3 253.4,163.3 148.3,0 260.93,-67.59 272.2,-165.19 h 268.41 v 146.42 c -54.43,157.68 -279.68,268.44 -549.99,268.44 -326.62,0 -551.875,-182.1 -551.875,-444.89 0,-564.99 852.205,-274.04 852.205,-561.25 0,-103.26 -114.49,-178.34 -272.17,-176.45 -153.92,0 -272.18,78.84 -285.32,189.59 H 976.758 v -146.42 c 61.952,-172.7 285.322,-292.83 544.372,-292.83 349.15,0 591.28,191.47 589.42,467.41 0,559.38 -850.34,270.3 -850.34,551.87" /><path
         id="path26"
         d="m 5981.96,2140.84 c -314.31,0 -530.77,-204.04 -541.21,-502.59 h -0.49 v -502.81 h 301.38 v 489.53 c 3.91,148.49 101.07,250.5 240.32,250.5 137.44,0 236.4,-102.05 240.34,-250.57 v -485.95 h 301.38 v 499.3 h -0.49 c -10.52,298.55 -228.74,502.59 -541.23,502.59" /></g></g></svg>